<?xml version="1.0" encoding="utf-8"?>
<!-- Generator: Adobe Illustrator 25.2.0, SVG Export Plug-In . SVG Version: 6.00 Build 0)  -->
<svg version="1.1" id="Capa_1" xmlns="http://www.w3.org/2000/svg" xmlns:xlink="http://www.w3.org/1999/xlink" x="0px" y="0px"
	 viewBox="0 0 979.41 295.63" style="enable-background:new 0 0 979.41 295.63;" xml:space="preserve">
<style type="text/css">
	.st0{fill:#7FBC55;}
	.st1{fill:#040406;}
	.st2{fill:#040506;}
	.st3{fill:#050608;}
	.st4{fill:#101012;}
	.st5{fill:#19191B;}
	.st6{fill:#131214;}
	.st7{fill:#0A0B0E;}
	.st8{fill:#FCFDFB;}
	.st9{fill:#FEFFFF;}
	.st10{fill:#FEFFFE;}
	.st11{fill:#FDFEFE;}
</style>
<g>
	<path class="st0" d="M195.3,97.49c0,31.64,0,63.28,0,94.92c0,3.3,0.36,2.96-2.93,2.96c-63.08,0.01-126.16,0.01-189.24,0
		c-3.52,0-3.11,0.45-3.11-3c-0.01-63.12-0.01-126.25,0-189.37c0-3.29-0.34-2.99,2.92-2.99C66.09,0,129.25,0,192.41,0
		c3.13,0,2.89-0.24,2.89,2.8C195.3,34.37,195.3,65.93,195.3,97.49z M97.79,18.48c-25.34,0-50.68,0-76.02,0
		c-0.64,0-1.28,0.05-1.92-0.01c-1.16-0.1-1.54,0.41-1.52,1.53c0.05,2.88,0,5.75,0.02,8.63c0.02,3.39-0.38,3.02,3.12,3.02
		c50.76,0.01,101.53,0,152.29,0c0.48,0,0.96-0.04,1.44,0.01c1.26,0.13,1.68-0.41,1.66-1.66c-0.06-3.27,0-6.55-0.03-9.83
		c-0.02-1.65-0.06-1.65-1.81-1.7c-0.48-0.01-0.96,0-1.44,0C148.31,18.48,123.05,18.48,97.79,18.48z M97.6,60.59
		c25.26,0,50.52,0,75.78,0c0.56,0,1.12,0.01,1.68,0c1.71-0.04,1.74-0.05,1.76-1.7c0.03-2.8,0.02-5.59,0.01-8.39
		c-0.02-3.31,0.31-2.88-2.99-2.88c-50.84-0.01-101.68-0.01-152.51-0.01c-0.4,0-0.8-0.01-1.2,0c-1.71,0.05-1.74,0.05-1.76,1.71
		c-0.03,3.2-0.03,6.39,0,9.59c0.01,1.63,0.05,1.63,1.79,1.67c0.56,0.01,1.12,0,1.68,0C47.08,60.59,72.34,60.59,97.6,60.59z
		 M97.53,105.66c-25.34,0-50.68,0-76.02,0c-0.56,0-1.12,0.05-1.68-0.01c-1.17-0.12-1.53,0.39-1.5,1.52c0.06,2.79,0,5.59,0.02,8.39
		c0.03,3.51-0.46,3.07,3.03,3.07c50.76,0.01,101.52,0.01,152.27,0.01c0.56,0,1.12-0.05,1.68,0.01c1.16,0.12,1.53-0.39,1.51-1.52
		c-0.05-3.19,0-6.39-0.02-9.59c-0.01-1.84-0.04-1.84-1.83-1.88c-0.56-0.01-1.12,0-1.68,0C148.05,105.66,122.79,105.66,97.53,105.66z
		 M50.98,89.73c1.44,0,2.88,0,4.31,0c8.71,0,17.42,0,26.13,0c2.31,0,2.32-0.02,2.33-2.39c0.01-2.87,0.01-5.75,0-8.62
		c-0.01-2.11-0.03-2.11-2.1-2.14c-0.24,0-0.48,0-0.72,0c-19.97,0-39.95,0-59.92,0c-0.48,0-0.96,0.03-1.44,0
		c-0.94-0.05-1.25,0.43-1.24,1.31c0.02,3.51,0.02,7.03,0,10.54c-0.01,0.89,0.32,1.35,1.25,1.3c0.56-0.03,1.12,0,1.68,0
		C31.17,89.73,41.08,89.73,50.98,89.73z M144.06,89.73c0.4,0,0.8,0,1.2,0c9.82,0,19.65,0.01,29.47,0c2.08,0,2.1-0.03,2.11-2.12
		c0.02-3.11-0.04-6.23,0.02-9.34c0.02-1.2-0.29-1.86-1.61-1.7c-0.32,0.04-0.64,0-0.96,0c-20.12,0-40.25,0-60.37,0
		c-0.48,0-0.96,0.01-1.44,0.01c-0.67,0.01-1.01,0.34-1.01,1.04c0.01,3.67,0.01,7.34,0,11.01c0,0.85,0.45,1.11,1.21,1.09
		c0.56-0.01,1.12,0.01,1.68,0.01C124.25,89.73,134.15,89.73,144.06,89.73z M144.06,147.78c10.22,0,20.44,0.01,30.67,0
		c2.07,0,2.09-0.03,2.1-2.12c0.02-2.79,0.01-5.59,0-8.38c0-2.75,0.16-2.53-2.65-2.53c-20.05,0-40.09,0-60.14,0
		c-0.48,0-0.96,0.02-1.44,0.01c-0.8-0.01-1.14,0.36-1.14,1.16c0.01,3.59,0.02,7.18,0,10.77c0,0.85,0.44,1.11,1.2,1.09
		c0.56-0.01,1.12,0,1.68,0C124.25,147.78,134.15,147.78,144.06,147.78z M51.26,163.73c-2.48,0-4.95,0-7.43,0
		c-7.83,0-15.65-0.01-23.48,0.01c-1.97,0-1.99,0.03-2.01,1.96c-0.02,3.19,0.02,6.39-0.02,9.58c-0.01,0.98,0.25,1.53,1.34,1.44
		c0.56-0.05,1.12,0,1.68,0c19.8,0,39.61,0,59.41,0c0.48,0,0.96-0.04,1.44,0c1.1,0.1,1.58-0.3,1.56-1.48c-0.06-3.35-0.05-6.7,0-10.06
		c0.02-1.2-0.52-1.54-1.59-1.46c-0.56,0.04-1.12,0.01-1.68,0.01C70.75,163.73,61,163.73,51.26,163.73z M144.28,163.73
		c-9.99,0-19.99,0-29.98,0c-0.56,0-1.12,0.02-1.68,0c-0.81-0.03-1.16,0.33-1.16,1.14c0.01,3.52,0.02,7.03-0.01,10.55
		c-0.01,0.9,0.32,1.34,1.25,1.29c0.48-0.03,0.96,0,1.44,0c19.99,0,39.97,0,59.96,0c0.48,0,0.96-0.03,1.44,0
		c0.9,0.05,1.3-0.32,1.29-1.25c-0.03-3.52-0.01-7.03-0.01-10.55c0-0.77-0.3-1.2-1.12-1.18c-0.56,0.02-1.12,0-1.68,0
		C164.11,163.73,154.19,163.73,144.28,163.73z M51.26,134.74c-4.31,0-8.63,0-12.94,0c-6.07,0-12.15-0.01-18.22,0.01
		c-1.69,0.01-1.73,0.05-1.74,1.74c-0.03,3.19-0.03,6.39,0,9.58c0.01,1.65,0.05,1.65,1.78,1.7c0.4,0.01,0.8,0,1.2,0
		c19.82,0,39.63,0,59.45,0c0.48,0,0.96-0.04,1.44,0.01c1.15,0.12,1.55-0.39,1.53-1.52c-0.04-3.35-0.05-6.71,0-10.06
		c0.02-1.2-0.5-1.56-1.58-1.47c-0.56,0.04-1.12,0-1.68,0C70.76,134.74,61.01,134.74,51.26,134.74z"/>
	<path class="st1" d="M413.7,193.97c0.97-0.05,1.44,0.45,1.98,0.74c6.25,3.39,12.99,5.1,20.01,5.96c3.74,0.46,7.49,0.52,11.23,0.71
		c4.64,0.24,9.23-0.22,13.7-1.64c9.73-3.09,15.17-9.85,16.93-19.73c1.03-5.78,0.36-11.63,0.57-17.42c-0.82-0.26-1.08,0.39-1.46,0.7
		c-7.19,5.79-15.39,9.16-24.49,10.58c-12.26,1.9-24.04,0.53-35.13-5.14c-13.22-6.76-22.18-17.45-26.93-31.36
		c-7.14-20.9-5.4-41.11,6.77-59.83c8.47-13.02,20.66-20.79,36.08-23.27c11.53-1.85,22.73-0.71,33.5,3.92
		c4.19,1.8,7.91,4.38,11.54,7.72c0.05-1.06,0.11-1.81,0.11-2.56c0.01-2.72,0.04-5.43-0.01-8.15c-0.02-1.02,0.29-1.5,1.35-1.38
		c0.24,0.03,0.48,0,0.72,0c9.43,0,18.87,0,28.3,0c1.89,0,1.96-0.25,1.96,1.95c-0.01,36.84,0.01,73.67-0.02,110.51
		c-0.01,9.15-1.1,18.17-4.23,26.83c-6.59,18.23-19.51,29.49-38.18,34.26c-7.54,1.93-15.25,2.42-23.03,2.15
		c-6.48-0.22-12.9-0.7-19.24-2.11c-3.66-0.81-7.2-2-10.68-3.39c-0.88-0.35-1.37-0.79-1.36-1.9
		C413.72,212.78,413.7,203.43,413.7,193.97z M478.09,114.18c0-5.75-0.05-11.5,0.03-17.25c0.02-1.57-0.4-2.69-1.59-3.73
		c-10.21-8.85-21.89-12.2-35.1-8.97c-9.39,2.3-16.25,7.92-19.98,16.98c-2.59,6.29-3.13,12.86-1.89,19.51
		c1.75,9.35,6.74,16.45,15.33,20.74c6.83,3.41,14.11,4.25,21.65,3.14c7.55-1.12,14.07-4.36,19.83-9.29c1.25-1.06,1.8-2.2,1.76-3.88
		C478.03,125.68,478.09,119.93,478.09,114.18z"/>
	<path class="st2" d="M388.12,175.59c-4.72,0-9.36,0-13.99,0c-5.52,0-11.03,0.01-16.55,0c-2.2,0-1.89,0.28-2.71-1.87
		c-3.52-9.23-6.99-18.48-10.48-27.72c-0.77-2.05-0.79-2.05-3.04-2.05c-22.15,0-44.29,0-66.44,0c-2.12,0-2.13,0-2.87,1.93
		c-3.62,9.36-7.25,18.72-10.84,28.1c-0.41,1.08-0.85,1.66-2.17,1.65c-10.07-0.06-20.15-0.03-30.22-0.04c-0.23,0-0.45-0.08-0.67-0.11
		c-0.33-0.9,0.25-1.59,0.53-2.29c20.12-51.15,40.26-102.29,60.4-153.43c0.15-0.37,0.32-0.73,0.43-1.11
		c0.28-0.97,0.85-1.36,1.92-1.33c2.56,0.09,5.12,0.03,7.67,0.03c8.87,0,17.75,0,26.62,0c2.2,0,2.21,0.01,3.02,2.12
		c19.62,51.34,39.24,102.68,58.86,154.03C387.83,174.06,388.2,174.61,388.12,175.59z M308.99,49.92
		c-9.38,23.45-18.58,46.43-27.84,69.57c18.22,0,36.17,0,54.34,0C326.68,96.38,317.93,73.41,308.99,49.92z"/>
	<path class="st1" d="M843.62,59.89c3.54,0,6.89,0,10.24,0c7.6,0,15.19,0.07,22.79-0.05c1.81-0.03,2.64,0.57,3.37,2.17
		c11.16,24.77,22.39,49.52,33.6,74.27c0.32,0.7,0.43,1.55,1.29,2.05c2.62-7.12,5.23-14.2,7.82-21.28
		c6.72-18.33,13.43-36.65,20.14-54.98c0.79-2.17,0.8-2.18,2.95-2.18c10.47,0,20.95-0.01,31.42,0.01c0.69,0,1.42-0.18,2.08,0.19
		c0.28,0.83-0.27,1.43-0.52,2.05c-16.88,42.08-33.77,84.15-50.7,126.21c-3.47,8.62-7.77,16.79-13.79,23.96
		c-7.42,8.84-16.72,14.28-28.18,16.19c-10.26,1.71-20.16,0.8-29.82-3.02c-1.15-0.45-1.75-0.95-1.74-2.38
		c0.08-9.43,0.04-18.86,0.05-28.29c0-0.3,0.05-0.6,0.07-0.89c0.7-0.21,0.93,0.34,1.22,0.65c3.22,3.45,7.16,5.53,11.82,6.24
		c3.87,0.59,7.72,0.99,11.67,0.4c4.71-0.7,8.34-3,11.14-6.73c2.12-2.83,3.66-5.98,4.98-9.24c1.02-2.51,1.95-5.06,3.04-7.54
		c0.56-1.28,0.44-2.3-0.17-3.56c-12.12-25.04-24.18-50.1-36.25-75.16c-5.88-12.21-11.76-24.42-17.63-36.62
		C844.18,61.66,843.66,61.02,843.62,59.89z"/>
	<path class="st1" d="M735.5,114.19c-0.16,15.63-4.22,29.24-13.6,40.99c-9.33,11.68-21.53,18.71-36.06,21.91
		c-7.01,1.54-14.11,1.91-21.21,1.33c-28.62-2.35-50.9-20.86-56.84-48.63c-4.17-19.47-1.06-37.84,10.79-54.2
		c9.19-12.69,21.8-20.27,37.04-23.66c7.01-1.56,14.11-1.91,21.2-1.3c31.51,2.69,52.7,24.29,57.5,51.43
		C735.08,106.32,735.33,110.62,735.5,114.19z M704.24,114.82c0-0.48,0.02-0.96,0-1.44c-0.06-1.04-0.11-2.08-0.24-3.1
		c-1.13-9.07-4.75-16.88-11.97-22.68c-7.61-6.11-16.4-8.19-26.03-6.96c-10.22,1.3-18.13,6.28-23.48,15.06
		c-4.91,8.05-6.22,16.85-4.56,26.04c1.6,8.85,5.94,16.13,13.44,21.26c7,4.78,14.79,6.39,23.2,5.5c6-0.63,11.52-2.49,16.34-6.09
		C700.15,135.55,704.05,126.06,704.24,114.82z"/>
	<path class="st3" d="M828.64,43.42c-3.73-2.26-7.6-4.11-11.8-5.14c-3.8-0.93-7.62-1.63-11.59-0.82c-4.04,0.83-6.75,3.08-8.17,6.9
		c-0.59,1.58-0.99,3.21-1.01,4.9c-0.04,3.12-0.03,6.23-0.13,9.35c-0.04,1.18,0.37,1.49,1.51,1.47c4.48-0.06,8.96-0.02,13.43-0.02
		c6.48,0,12.95-0.01,19.43,0.01c1.67,0,1.7,0.04,1.7,1.71c0.01,7.27,0.01,14.54,0,21.82c0,1.89-0.03,1.91-2,1.91
		c-10.47,0.01-20.95,0-31.42,0c-0.56,0-1.12,0.03-1.68-0.01c-0.76-0.05-0.97,0.35-0.95,1.01c0.02,0.64,0,1.28,0,1.92
		c0,28.21,0,56.42,0,84.63c0,3.42,0.25,2.98-2.9,2.98c-8.96,0.01-17.91,0-26.87,0c-0.56,0-1.12-0.01-1.68,0
		c-0.7,0.01-1.01-0.32-1-1.02c0.02-0.64,0-1.28,0-1.92c0-28.21,0-56.42,0-84.63c0-0.48-0.06-0.97,0.01-1.44
		c0.2-1.31-0.42-1.57-1.62-1.56c-6.16,0.05-12.31,0.02-18.47,0.03c-2.04,0-2,0.15-2-1.9c0.01-7.19,0-14.38,0.01-21.58
		c0-1.94,0.02-1.96,1.9-1.96c6.08-0.01,12.15-0.01,18.23,0c2.05,0,1.94,0.17,1.93-1.94c-0.03-5.67-0.09-11.35,0.95-16.96
		c1.81-9.8,5.87-18.37,13.89-24.66c5.94-4.66,12.82-6.9,20.25-7.76c9.61-1.11,18.93,0.3,28.11,3c2.62,0.77,2.35,0.24,2.35,3.01
		c0.01,9.11,0.01,18.22,0,27.33C829.07,42.45,829.2,42.87,828.64,43.42z"/>
	<path class="st2" d="M600.3,87.82c-5.33-3.39-11.02-4.65-16.93-5.27c-4.09-0.43-8.15-0.38-12.11,0.72
		c-6.34,1.76-10.65,5.86-13.16,11.91c-2.02,4.88-2.65,10.01-2.67,15.22c-0.06,20.93-0.06,41.85-0.09,62.78
		c0,3.27,0.32,2.86-2.75,2.86c-9.11,0.01-18.22,0.01-27.33,0c-0.56,0-1.12,0.01-1.68-0.01c-0.58-0.02-0.86-0.35-0.87-0.91
		c-0.01-0.56-0.01-1.12-0.01-1.68c0-39.14,0-78.28,0-117.41c0-2.86-0.26-2.59,2.55-2.59c9.19-0.01,18.38-0.01,27.57,0
		c2.73,0,2.5-0.36,2.51,2.6c0.01,1.74,0,3.47,0,5.16c0.7,0.25,1-0.21,1.37-0.46c7.07-4.77,14.83-7.56,23.33-8.39
		c6.47-0.64,12.7,0.27,18.79,2.45c1.1,0.39,1.65,0.89,1.64,2.18c-0.05,9.98-0.03,19.97-0.04,29.95
		C600.44,87.16,600.37,87.39,600.3,87.82z"/>
	<path class="st4" d="M123.96,272.8c-3.18,4.72-6.36,9.44-9.76,14.49c-3.3-4.91-6.42-9.57-9.55-14.24c-0.78,0.35-0.44,1-0.44,1.47
		c-0.03,6.15-0.01,12.3-0.02,18.45c0,2.01-0.02,2.01-1.89,2.05c-3.89,0.07-3.89,0.07-3.89-3.86c0-8.63,0-17.25,0-25.88
		c0-0.56,0.01-1.12,0-1.68c-0.01-0.67,0.26-1.05,0.98-1.04c1.44,0.01,2.88,0.02,4.32,0c1.02-0.02,1.3,0.81,1.72,1.45
		c2.65,4.08,5.28,8.18,7.92,12.26c0.25,0.39,0.41,0.86,0.93,1.09c0.77-0.35,1.01-1.17,1.43-1.81c2.48-3.81,4.96-7.62,7.35-11.49
		c0.72-1.16,1.55-1.69,2.91-1.53c0.79,0.09,1.6,0,2.4,0.02c1.77,0.04,1.8,0.04,1.8,1.89c0.01,7.91,0,15.81,0,23.72
		c0,1.84-0.05,3.68,0.02,5.51c0.04,1.08-0.4,1.31-1.4,1.35c-4.41,0.17-4.41,0.2-4.41-4.08c0-5.99,0-11.98,0-17.97
		C124.24,272.93,124.1,272.86,123.96,272.8z"/>
	<path class="st5" d="M923.2,282.83c2.84,4.01,5.59,7.89,8.64,12.19c-2.42,0-4.36-0.01-6.31,0c-0.8,0.01-1.03-0.66-1.38-1.16
		c-2.08-2.93-4.18-5.84-6.2-8.81c-0.61-0.9-1.27-1.3-2.36-1.23c-1.35,0.08-2.72,0.07-4.07,0c-1.06-0.06-1.38,0.35-1.36,1.37
		c0.06,2.63,0.03,5.27,0.01,7.91c-0.01,1.88-0.03,1.88-1.78,1.92c-4.18,0.1-4.18,0.1-4.18-4.09c0-8.71,0-17.41,0-26.12
		c0-2.24,0.02-2.3,2.2-2.25c5.03,0.11,10.06-0.32,15.08,0.32c6.8,0.87,10.67,6.51,8.89,13.1c-0.6,2.23-1.93,3.99-3.9,5.27
		C925.54,281.88,924.52,282.3,923.2,282.83z M915.45,268.15c0-0.05,0-0.09,0-0.14c-1.36,0-2.72,0.04-4.07-0.01
		c-0.95-0.04-1.24,0.36-1.22,1.26c0.04,1.99,0.01,3.99,0.01,5.98c0,3.41,0,3.44,3.39,3.4c2.3-0.03,4.62,0.24,6.91-0.32
		c2.92-0.72,4.41-2.57,4.28-5.44c-0.12-2.66-1.84-4.44-4.76-4.71C918.49,268.04,916.96,268.15,915.45,268.15z"/>
	<path class="st4" d="M476.58,273.14c0,6.3,0,12.59,0,18.89c0,3,0,3.01-3.07,2.99c-3.03-0.02-2.67,0.39-2.68-2.66
		c-0.01-9.03-0.01-18.06,0-27.09c0-0.56,0.02-1.12,0-1.68c-0.02-0.7,0.3-1.03,1-1.02c1.2,0,2.4,0,3.6,0c1.08,0,1.44,0.92,1.95,1.58
		c4.52,5.79,9.01,11.61,13.51,17.42c0.67,0.87,1.36,1.74,2.16,2.76c0.45-0.75,0.29-1.39,0.29-1.97c0.02-5.83,0.01-11.67,0.01-17.5
		c0-2.24-0.26-2.29,2.14-2.3c3.63-0.01,3.63-0.03,3.63,3.68c0,8.95,0,17.9,0,26.85c0,1.92-0.04,1.79-1.96,1.98
		c-2.12,0.2-3.48-0.55-4.77-2.27c-4.54-6.08-9.25-12.03-13.9-18.03c-0.48-0.62-0.99-1.2-1.49-1.8
		C476.85,273.02,476.71,273.08,476.58,273.14z"/>
	<path class="st4" d="M596.07,283.9c0-3.73,0-7.46,0-11.2c0-2.96,0.02-5.91-0.01-8.87c-0.01-0.92,0.32-1.22,1.24-1.29
		c4.54-0.35,4.54-0.37,4.54,4.22c0,8.71,0,17.41,0,26.12c0,2.28,0.09,2.01-2.01,2.18c-2.04,0.16-3.34-0.51-4.58-2.18
		c-4.58-6.14-9.34-12.15-14.05-18.2c-0.46-0.59-0.79-1.33-1.85-1.85c0,1.02,0,1.78,0,2.55c0,5.83,0,11.66,0,17.49
		c0,2.13-0.02,2.13-2,2.15c-3.77,0.04-3.77,0.04-3.77-3.76c0-8.87,0-17.73,0-26.6c0-2.07,0.02-2.07,2.11-2.1
		c0.4,0,0.81,0.06,1.2-0.01c1.55-0.28,2.48,0.47,3.39,1.66c4.55,5.97,9.17,11.88,13.77,17.81c0.53,0.68,1.07,1.36,1.61,2.04
		C595.79,284.01,595.93,283.95,596.07,283.9z"/>
	<path class="st4" d="M960.77,295.53c-9.66,0.01-16.86-7.16-16.89-16.71c-0.03-8.17,5.97-16.69,16.96-16.71
		c10.51-0.02,16.9,7.87,16.88,16.72C977.7,288.31,970.4,295.52,960.77,295.53z M950.06,278.69c-0.27,5.69,4.08,11.99,11.53,11.47
		c6.04-0.42,9.27-4.75,9.96-9.86c0.7-5.18-2.19-10.46-6.95-12.09C956,265.27,949.86,271.85,950.06,278.69z"/>
	<path class="st4" d="M439.18,295.53c-9.46-0.04-16.86-7.32-16.71-16.68c0.16-9.81,7.37-16.87,17.19-16.75
		c10.55,0.13,16.71,8.08,16.69,16.69C456.32,288.73,448.45,295.74,439.18,295.53z M450.21,278.87c-0.08-9.07-8.67-13.87-15.99-10.08
		c-5.06,2.62-7.05,9.46-4.55,15c2.19,4.85,7.2,7.29,12.4,6.05C446.97,288.66,450.21,284.3,450.21,278.87z"/>
	<path class="st6" d="M203.71,282.88c2.8,3.96,5.54,7.84,8.58,12.15c-2.37,0-4.25-0.02-6.12,0.01c-0.9,0.02-1.22-0.68-1.62-1.24
		c-2-2.79-4.01-5.57-5.92-8.42c-0.74-1.1-1.53-1.7-2.91-1.56c-1.11,0.12-2.24,0.03-3.36,0.02c-1.96-0.01-1.76-0.01-1.76,1.87
		c0,2.56-0.04,5.11,0.02,7.67c0.03,1.17-0.22,1.82-1.57,1.66c-1.33-0.16-3.01,0.55-3.93-0.3c-0.93-0.87-0.33-2.57-0.34-3.9
		c-0.03-8.71-0.02-17.42-0.01-26.13c0-2.12,0.02-2.18,2.04-2.14c5.03,0.11,10.07-0.32,15.09,0.32c6.94,0.88,10.8,6.63,8.86,13.28
		c-0.71,2.43-2.23,4.2-4.41,5.43C205.59,282.03,204.78,282.36,203.71,282.88z M190.6,268.12c0,3.23,0,6.24,0,9.26
		c0,0.66-0.05,1.32,0.94,1.27c3.02-0.14,6.05,0.32,9.05-0.28c3.15-0.64,4.77-2.51,4.67-5.36c-0.1-2.84-1.91-4.69-5.13-4.85
		C197.03,268,193.93,268.12,190.6,268.12z"/>
	<path class="st4" d="M370.64,295.53c-9.49-0.06-16.72-7.31-16.65-16.72c0.07-9.1,6.82-16.74,16.97-16.71
		c11.39,0.03,17.06,8.99,16.89,16.97C387.65,288.45,380.33,295.59,370.64,295.53z M381.65,278.82c0.23-7.67-7.13-13.86-15.34-10.31
		c-5.13,2.21-7.43,8.5-5.56,14.21c2.02,6.16,8.41,8.35,12.86,7.17C377.95,288.73,381.91,284.34,381.65,278.82z"/>
	<path class="st6" d="M311.6,278.71c0-4.79-0.01-9.58,0.01-14.37c0.01-1.72,0.04-1.8,1.7-1.76c4.47,0.09,8.93-0.23,13.4,0.3
		c7.91,0.94,13.83,7.2,14.2,14.94c0.42,8.88-5.38,15.15-12.98,16.75c-3.17,0.67-6.36,0.37-9.55,0.44c-1.6,0.03-3.2,0.02-4.79,0
		c-1.96-0.02-1.99-0.03-1.99-1.94C311.59,288.29,311.6,283.5,311.6,278.71z M317.44,278.92c0,3.12,0.04,6.23-0.02,9.35
		c-0.02,1.15,0.34,1.56,1.5,1.5c1.67-0.08,3.36,0.03,5.03-0.03c6.22-0.23,10.32-4.01,10.83-9.95c0.55-6.34-3.57-11.22-9.92-11.68
		c-1.91-0.14-3.83-0.11-5.75-0.09c-1.63,0.01-1.65,0.05-1.67,1.8C317.43,272.85,317.44,275.88,317.44,278.92z"/>
	<path class="st4" d="M678,278.77c0-4.78-0.01-9.57,0.01-14.35c0.01-1.81,0.04-1.88,1.85-1.84c4.3,0.09,8.6-0.19,12.91,0.28
		c6.87,0.75,14.18,5.83,14.51,15.4c0.29,8.27-5.22,14.85-13.42,16.37c-3.73,0.69-7.48,0.3-11.21,0.37
		c-1.48,0.03-3.36,0.69-4.36-0.34c-0.88-0.91-0.26-2.74-0.28-4.16C677.98,286.59,678,282.68,678,278.77z M683.82,278.69
		c0,3.28,0.01,6.55,0,9.83c0,0.69,0.02,1.27,0.98,1.23c2.71-0.12,5.42,0.19,8.12-0.39c5.28-1.13,8.46-5.44,8.21-11.29
		c-0.22-5.26-4.1-9.48-9.26-9.9c-2.23-0.18-4.47-0.08-6.71-0.18c-1.04-0.05-1.37,0.32-1.35,1.35
		C683.86,272.46,683.82,275.58,683.82,278.69z"/>
	<path class="st6" d="M888.13,266.53c-0.92,1.12-1.85,2.12-2.61,3.22c-0.73,1.06-1.36,1.04-2.31,0.26
		c-2.39-1.98-5.23-2.56-8.28-2.47c-4.9,0.14-9.03,4.26-9.7,9.58c-0.19,1.5-0.18,3.04,0.16,4.53c1.94,8.6,10.77,10.48,17.2,6.83
		c0.6-0.34,1.02-0.72,1-1.47c-0.03-1.36-0.03-2.72,0-4.07c0.02-0.77-0.4-0.92-1.05-0.91c-1.84,0.02-3.68-0.05-5.52,0.02
		c-1.19,0.05-1.73-0.27-1.69-1.59c0.13-4.43-0.52-3.52,3.46-3.59c3.04-0.05,6.08,0.03,9.11-0.03c1.07-0.02,1.36,0.38,1.35,1.39
		c-0.04,3.75-0.03,7.51-0.01,11.27c0,0.69-0.15,1.22-0.71,1.66c-6.65,5.25-16.73,6.24-23.36,1.01c-5.76-4.54-7.34-10.75-5.61-17.64
		c1.66-6.59,6.07-10.74,12.83-12.05C878.19,261.34,883.46,262.55,888.13,266.53z"/>
	<path class="st4" d="M23.69,281.21c-4.5,0-8.89,0-13.28,0c-0.56,0-1.12,0.02-1.68,0c-0.73-0.04-0.99,0.31-0.98,1
		c0.01,2.16,0.03,4.31-0.01,6.47c-0.02,0.82,0.26,1.14,1.09,1.1c1.2-0.05,2.4-0.01,3.6-0.01c4.16,0,8.31,0.02,12.47-0.01
		c0.89-0.01,1.22,0.21,1.27,1.19c0.2,4.08,0.24,4.08-3.94,4.08c-5.91,0-11.83,0.01-17.74-0.01c-0.79,0-1.59,0.14-2.36-0.14
		c-0.35-0.61-0.23-1.26-0.23-1.89c-0.01-9.42-0.01-18.85-0.01-28.27c0-0.32,0.02-0.64,0-0.96c-0.07-0.96,0.41-1.23,1.3-1.2
		c1.84,0.04,3.68,0.01,5.51,0.01c5.03,0,10.07-0.01,15.1,0c2.14,0,2.14,0.02,2.17,2.04c0.04,3.26,0.04,3.26-3.28,3.26
		c-4.48,0-8.95,0.03-13.43-0.02c-1.07-0.01-1.61,0.2-1.55,1.43c0.09,1.75,0.09,3.52,0,5.27c-0.06,1.17,0.34,1.49,1.49,1.47
		c4.23-0.06,8.47-0.03,12.71-0.02c1.85,0.01,1.86,0.03,1.89,1.79c0.02,0.8,0.01,1.6,0,2.4C23.81,280.41,23.76,280.64,23.69,281.21z"
		/>
	<path class="st6" d="M151.92,289.62c2.01,0.3,3.92,0.12,5.83,0.14c3.76,0.03,7.52,0.03,11.27-0.01c1-0.01,1.37,0.27,1.4,1.34
		c0.13,3.94,0.17,3.94-3.87,3.94c-6.24,0-12.47,0.01-18.71-0.01c-1.73,0-1.77-0.04-1.77-1.68c-0.01-9.67-0.01-19.34,0-29.01
		c0-1.71,0.04-1.76,1.71-1.76c6.96-0.02,13.91,0.02,20.87-0.03c1.16-0.01,1.49,0.35,1.53,1.5c0.12,3.83,0.17,3.83-3.68,3.83
		c-4.32,0-8.64,0.04-12.95-0.02c-1.26-0.02-1.69,0.43-1.64,1.66c0.07,1.67,0.08,3.36,0,5.03c-0.06,1.19,0.41,1.49,1.53,1.48
		c4.16-0.05,8.32-0.01,12.47-0.02c2.44-0.01,2.16,0.05,2.17,2.26c0.01,2.96,0.02,2.96-2.83,2.97c-3.84,0-7.68-0.01-11.51,0.01
		c-1.75,0.01-1.77,0.03-1.79,1.65C151.9,285.1,151.92,287.33,151.92,289.62z"/>
	<path class="st6" d="M623.65,289.77c3.14,0,6.16,0,9.19,0c2.64,0,5.28,0.04,7.91-0.02c1.05-0.03,1.33,0.33,1.35,1.36
		c0.1,3.92,0.14,3.91-3.86,3.91c-6.23,0-12.47,0.01-18.7-0.01c-1.81,0-1.84-0.03-1.84-1.85c-0.01-9.58-0.01-19.17,0-28.75
		c0-1.81,0.04-1.84,1.87-1.85c6.87-0.01,13.75,0.03,20.62-0.03c1.3-0.01,1.6,0.44,1.62,1.65c0.07,3.68,0.11,3.68-3.58,3.68
		c-4.32,0-8.63-0.02-12.95,0.01c-1.67,0.01-1.69,0.05-1.72,1.76c-0.03,1.68,0.04,3.36-0.02,5.03c-0.04,1.08,0.42,1.35,1.41,1.34
		c4.24-0.03,8.47-0.02,12.71-0.01c2.03,0.01,2.03,0.02,2.05,2.13c0.03,3.09,0.03,3.09-2.95,3.09c-3.76,0-7.51-0.01-11.27,0
		c-1.9,0.01-1.92,0.03-1.93,2c-0.01,1.84,0,3.67,0,5.51C623.57,288.96,623.6,289.2,623.65,289.77z"/>
	<path class="st6" d="M745.78,267.64c-1.22,0.4-2.35,0.21-3.44,0.21c-4.4,0.03-8.79,0.05-13.19-0.01c-1.24-0.02-1.71,0.33-1.63,1.62
		c0.11,1.67,0.09,3.36,0,5.03c-0.06,1.13,0.28,1.55,1.47,1.52c2.88-0.07,5.75-0.02,8.63-0.02c1.52,0,3.04,0.06,4.55-0.02
		c1.3-0.07,1.6,0.48,1.61,1.69c0.05,3.56,0.1,3.56-3.49,3.56c-3.76,0-7.51,0.04-11.27-0.02c-1.15-0.02-1.55,0.35-1.5,1.5
		c0.08,1.91,0.08,3.83,0,5.75c-0.04,1.07,0.35,1.35,1.37,1.35c4.87-0.04,9.75-0.03,14.62-0.01c2.9,0.01,2.53-0.31,2.56,2.54
		c0,0.32,0.01,0.64,0,0.96c-0.05,1.71-0.05,1.74-1.72,1.75c-4.79,0.02-9.59,0.01-14.38,0.01c-2.16,0-4.32,0.02-6.47-0.01
		c-1.71-0.02-1.73-0.03-1.75-1.67c-0.02-2.16-0.01-4.31-0.01-6.47c0-7.35,0-14.7,0-22.04c0-2.21-0.28-2.28,2.15-2.28
		c6.71,0.01,13.43,0,20.14,0.01c1.69,0,1.7,0.04,1.73,1.73C745.79,265.41,745.78,266.52,745.78,267.64z"/>
	<path class="st4" d="M848.89,294.87c-0.24,0.05-0.46,0.15-0.68,0.14c-1.66-0.07-3.58,0.59-4.92-0.26c-1.26-0.79-1.43-2.75-2.06-4.2
		c-1.4-3.25-1.38-3.26-4.93-3.26c-3.36,0-6.71,0.04-10.06-0.02c-1.11-0.02-1.74,0.31-2.13,1.39c-0.65,1.79-1.44,3.54-2.19,5.3
		c-0.25,0.59-0.52,1.11-1.36,1.08c-1.57-0.06-3.15-0.02-4.67-0.02c-0.28-1.08,0.3-1.74,0.6-2.44c4.09-9.42,8.24-18.81,12.29-28.25
		c0.63-1.47,1.37-2.02,3-1.95c3.29,0.14,3.29,0.03,4.62,3.07c3.96,9.04,7.92,18.08,11.86,27.14
		C848.55,293.3,849.1,293.97,848.89,294.87z M832.27,269.52c-1.85,4.32-3.57,8.35-5.34,12.51c3.72,0,7.06,0,10.72,0
		C835.86,277.86,834.14,273.86,832.27,269.52z"/>
	<path class="st4" d="M265.15,295.02c-0.3-0.93,0.19-1.46,0.43-2.01c4.16-9.57,8.38-19.12,12.49-28.71c0.64-1.5,1.47-1.82,3.01-1.94
		c2.56-0.2,3.68,0.75,4.66,3.12c3.75,9.05,7.8,17.98,11.71,26.97c0.34,0.77,0.94,1.5,0.73,2.58c-1.5,0-3.02-0.05-4.53,0.02
		c-0.95,0.04-1.45-0.31-1.79-1.18c-0.69-1.78-1.52-3.51-2.18-5.31c-0.36-1-0.93-1.29-1.95-1.28c-4.16,0.05-8.32,0.04-12.47,0.01
		c-0.93-0.01-1.43,0.3-1.77,1.2c-0.67,1.79-1.53,3.51-2.22,5.29c-0.37,0.97-0.93,1.34-1.97,1.28
		C267.89,294.96,266.48,295.02,265.15,295.02z M281.54,269.53c-1.89,4.41-3.57,8.35-5.33,12.47c3.65,0,7.04,0,10.71,0
		C285.15,277.88,283.42,273.88,281.54,269.53z"/>
	<path class="st6" d="M250.26,286.08c1.21,1.3,2.33,2.52,3.56,3.84c-4.85,5.21-10.92,6.85-17.72,4.94
		c-6.47-1.82-10.37-6.37-11.47-13.05c-1.46-8.94,3.34-16.77,11.71-19.04c5.8-1.58,11.21-0.62,15.99,3.16
		c1.46,1.16,1.46,1.2,0.32,2.55c-0.77,0.91-1.44,2.16-2.43,2.56c-1.17,0.48-1.89-1.07-2.87-1.65c-3.97-2.32-8.01-2.77-11.95-0.2
		c-4.1,2.68-5.44,6.78-4.79,11.46c0.71,5.12,4,8.53,8.84,9.41c3.16,0.58,5.98-0.4,8.53-2.24
		C248.76,287.27,249.49,286.67,250.26,286.08z"/>
	<path class="st6" d="M760.37,278.87c0-4.79-0.01-9.58,0.01-14.36c0.01-1.9,0.04-1.96,1.77-1.94c4.91,0.06,4.04-0.68,4.07,3.96
		c0.05,7.02,0.01,14.04,0.01,21.07c0,2.46-0.08,2.13,2.23,2.14c4.31,0.01,8.62-0.01,12.94,0.01c1.71,0.01,1.71,0.03,1.75,1.64
		c0.08,3.64,0.08,3.64-3.62,3.64c-5.19,0-10.38,0-15.57,0c-3.59,0-3.59,0-3.59-3.7C760.37,287.17,760.37,283.02,760.37,278.87z"/>
	<path class="st7" d="M537.39,289.74c0.1,0.21,0.16,0.28,0.17,0.35c0.51,4.93,0.51,4.93-4.35,4.93c-5.51,0-11.01,0.01-16.52-0.01
		c-1.69,0-1.73-0.04-1.73-1.69c-0.01-9.65-0.01-19.3,0-28.95c0-1.77,0.03-1.77,1.88-1.81c3.9-0.08,3.9-0.08,3.9,3.87
		c0,6.78,0,13.56,0,20.34c0,2.96,0,2.96,3.08,2.96c3.75,0,7.5,0,11.25,0C535.88,289.74,536.67,289.74,537.39,289.74z"/>
	<path class="st7" d="M40.47,278.62c0-4.71-0.01-9.42,0-14.12c0.01-1.88,0.03-1.88,1.76-1.93c4.05-0.11,4.05-0.11,4.05,3.96
		c0,7.02,0,14.04,0,21.06c0,2.35-0.14,2.15,2.24,2.15c4.23,0,8.46-0.01,12.69,0c1.98,0,1.98,0.02,2.01,1.88
		c0.05,3.39,0.05,3.39-3.41,3.39c-5.83,0-11.66,0.01-17.48,0c-1.83,0-1.86-0.03-1.86-1.8C40.46,288.35,40.47,283.49,40.47,278.62z"
		/>
	<path class="st6" d="M557.35,278.99c0,4.71,0.01,9.43-0.01,14.14c-0.01,1.86-0.03,1.86-1.77,1.9c-4.08,0.08-4.08,0.08-4.08-3.93
		c0-8.79,0-17.58,0-26.37c0-2.13,0.02-2.13,2.04-2.16c3.81-0.06,3.81-0.06,3.81,3.72C557.35,270.52,557.35,274.75,557.35,278.99z"/>
	<path class="st8" d="M97.79,18.48c25.26,0,50.52,0,75.78,0c0.48,0,0.96-0.01,1.44,0c1.75,0.05,1.79,0.05,1.81,1.7
		c0.03,3.28-0.03,6.55,0.03,9.83c0.02,1.25-0.4,1.79-1.66,1.66c-0.47-0.05-0.96-0.01-1.44-0.01c-50.76,0-101.53,0-152.29,0
		c-3.5,0-3.1,0.37-3.12-3.02c-0.02-2.88,0.03-5.75-0.02-8.63c-0.02-1.13,0.36-1.64,1.52-1.53c0.63,0.06,1.28,0.01,1.92,0.01
		C47.11,18.48,72.45,18.48,97.79,18.48z"/>
	<path class="st9" d="M97.6,60.59c-25.26,0-50.52,0-75.78,0c-0.56,0-1.12,0.01-1.68,0c-1.74-0.04-1.77-0.04-1.79-1.67
		c-0.03-3.2-0.03-6.39,0-9.59c0.01-1.66,0.05-1.66,1.76-1.71c0.4-0.01,0.8,0,1.2,0c50.84,0,101.68,0,152.51,0.01
		c3.31,0,2.98-0.43,2.99,2.88c0.02,2.8,0.02,5.59-0.01,8.39c-0.02,1.65-0.05,1.66-1.76,1.7c-0.56,0.01-1.12,0-1.68,0
		C148.12,60.59,122.86,60.59,97.6,60.59z"/>
	<path class="st9" d="M97.53,105.66c25.26,0,50.52,0,75.78,0c0.56,0,1.12-0.01,1.68,0c1.79,0.04,1.82,0.04,1.83,1.88
		c0.02,3.2-0.03,6.39,0.02,9.59c0.02,1.13-0.35,1.64-1.51,1.52c-0.55-0.06-1.12-0.01-1.68-0.01c-50.76,0-101.52,0-152.27-0.01
		c-3.49,0-2.99,0.44-3.03-3.07c-0.03-2.8,0.04-5.59-0.02-8.39c-0.02-1.13,0.34-1.64,1.5-1.52c0.55,0.06,1.12,0.01,1.68,0.01
		C46.85,105.66,72.19,105.66,97.53,105.66z"/>
	<path class="st8" d="M50.98,89.73c-9.91,0-19.81,0-29.72,0c-0.56,0-1.12-0.03-1.68,0c-0.94,0.05-1.26-0.41-1.25-1.3
		c0.02-3.51,0.02-7.03,0-10.54c-0.01-0.89,0.3-1.36,1.24-1.31c0.48,0.02,0.96,0,1.44,0c19.97,0,39.95,0,59.92,0
		c0.24,0,0.48,0,0.72,0c2.07,0.04,2.08,0.04,2.1,2.14c0.01,2.87,0.01,5.75,0,8.62c-0.01,2.37-0.02,2.39-2.33,2.39
		c-8.71,0.01-17.42,0-26.13,0C53.86,89.73,52.42,89.73,50.98,89.73z"/>
	<path class="st8" d="M144.06,89.73c-9.9,0-19.8,0-29.71,0c-0.56,0-1.12-0.02-1.68-0.01c-0.76,0.02-1.21-0.24-1.21-1.09
		c0.01-3.67,0.01-7.34,0-11.01c0-0.7,0.34-1.02,1.01-1.04c0.48-0.01,0.96-0.01,1.44-0.01c20.12,0,40.25,0,60.37,0
		c0.32,0,0.64,0.03,0.96,0c1.31-0.15,1.63,0.5,1.61,1.7c-0.06,3.11-0.01,6.22-0.02,9.34c-0.01,2.09-0.03,2.12-2.11,2.12
		c-9.82,0.01-19.65,0-29.47,0C144.85,89.73,144.45,89.73,144.06,89.73z"/>
	<path class="st10" d="M144.06,147.78c-9.9,0-19.81,0-29.71,0c-0.56,0-1.12-0.02-1.68,0c-0.76,0.02-1.21-0.24-1.2-1.09
		c0.01-3.59,0.01-7.18,0-10.77c0-0.8,0.34-1.18,1.14-1.16c0.48,0.01,0.96-0.01,1.44-0.01c20.05,0,40.09,0,60.14,0
		c2.81,0,2.64-0.21,2.65,2.53c0,2.79,0.01,5.59,0,8.38c-0.01,2.09-0.03,2.12-2.1,2.12C164.5,147.79,154.28,147.78,144.06,147.78z"/>
	<path class="st11" d="M51.26,163.73c9.74,0,19.49,0,29.23,0c0.56,0,1.12,0.04,1.68-0.01c1.07-0.08,1.61,0.26,1.59,1.46
		c-0.05,3.35-0.05,6.7,0,10.06c0.02,1.18-0.46,1.58-1.56,1.48c-0.48-0.04-0.96,0-1.44,0c-19.8,0-39.61,0-59.41,0
		c-0.56,0-1.12-0.04-1.68,0c-1.09,0.09-1.35-0.46-1.34-1.44c0.03-3.19,0-6.38,0.02-9.58c0.01-1.93,0.04-1.96,2.01-1.96
		c7.83-0.01,15.65-0.01,23.48-0.01C46.31,163.73,48.79,163.73,51.26,163.73z"/>
	<path class="st11" d="M144.28,163.73c9.91,0,19.83,0,29.74,0c0.56,0,1.12,0.02,1.68,0c0.83-0.03,1.12,0.41,1.12,1.18
		c-0.01,3.52-0.02,7.03,0.01,10.55c0.01,0.93-0.39,1.3-1.29,1.25c-0.48-0.03-0.96,0-1.44,0c-19.99,0-39.97,0-59.96,0
		c-0.48,0-0.96-0.03-1.44,0c-0.93,0.05-1.26-0.39-1.25-1.29c0.03-3.52,0.02-7.03,0.01-10.55c0-0.81,0.35-1.17,1.16-1.14
		c0.56,0.02,1.12,0,1.68,0C124.29,163.73,134.29,163.73,144.28,163.73z"/>
	<path class="st10" d="M51.26,134.74c9.75,0,19.5,0,29.25,0c0.56,0,1.12,0.04,1.68,0c1.08-0.08,1.6,0.27,1.58,1.47
		c-0.06,3.35-0.05,6.71,0,10.06c0.02,1.13-0.38,1.63-1.53,1.52c-0.47-0.05-0.96-0.01-1.44-0.01c-19.82,0-39.63,0-59.45,0
		c-0.4,0-0.8,0.01-1.2,0c-1.73-0.05-1.77-0.05-1.78-1.7c-0.03-3.19-0.03-6.39,0-9.58c0.01-1.69,0.05-1.74,1.74-1.74
		c6.07-0.02,12.15-0.01,18.22-0.01C42.63,134.74,46.94,134.74,51.26,134.74z"/>
</g>
</svg>
