<?xml version="1.0" encoding="utf-8"?>
<!-- Generator: Adobe Illustrator 25.2.0, SVG Export Plug-In . SVG Version: 6.00 Build 0)  -->
<svg version="1.1" id="Capa_1" xmlns="http://www.w3.org/2000/svg" xmlns:xlink="http://www.w3.org/1999/xlink" x="0px" y="0px"
	 viewBox="0 0 65.25 31.49" style="enable-background:new 0 0 65.25 31.49;" xml:space="preserve">
<style type="text/css">
	.st0{fill:#FFFFFF;}
	.st1{stroke:#000000;stroke-miterlimit:10;}
</style>
<g>
	<g>
		<path class="st0" d="M15.58,18.5h-4.55l-4.99-8.05C5.4,9.42,4.75,8.16,4.1,6.69c0.29,1.17,0.44,2.17,0.44,2.99v8.82H0V0.28h5.29
			l4.25,6.67c0.85,1.33,1.49,2.49,1.92,3.5c-0.28-1.56-0.43-3.15-0.43-4.78V0.28h4.55V18.5z"/>
		<path class="st0" d="M28.78,11.55l5.11,0.31c-0.24,2.23-1.07,3.95-2.48,5.14c-1.41,1.19-3.14,1.79-5.2,1.79
			c-2.47,0-4.47-0.82-5.99-2.46c-1.52-1.64-2.28-3.9-2.28-6.78c0-2.86,0.72-5.16,2.16-6.91C21.54,0.88,23.55,0,26.14,0
			c2.41,0,4.26,0.67,5.56,2c1.29,1.33,2.03,3.11,2.2,5.31L28.67,7.6c0-1.22-0.23-2.1-0.7-2.64c-0.47-0.54-1.02-0.81-1.65-0.81
			c-1.76,0-2.64,1.77-2.64,5.31c0,1.98,0.23,3.33,0.69,4.04s1.1,1.07,1.93,1.07C27.77,14.56,28.6,13.56,28.78,11.55z"/>
		<path class="st0" d="M48.71,14.03v4.47H35.93V0.28h5.59v13.75H48.71z"/>
		<path class="st0" d="M48.77,13.23l5.19-0.93c0.44,1.47,1.56,2.2,3.36,2.2c1.41,0,2.11-0.37,2.11-1.12c0-0.39-0.16-0.7-0.49-0.91
			c-0.33-0.22-0.91-0.41-1.74-0.58c-3.2-0.61-5.25-1.41-6.15-2.4S49.69,7.33,49.69,6c0-1.72,0.65-3.15,1.96-4.29
			C52.95,0.57,54.83,0,57.28,0c3.71,0,6.16,1.49,7.35,4.47L60,5.87c-0.48-1.22-1.46-1.83-2.92-1.83c-1.22,0-1.83,0.38-1.83,1.13
			c0,0.34,0.14,0.6,0.41,0.79c0.28,0.19,0.81,0.36,1.6,0.53c2.18,0.46,3.73,0.87,4.65,1.22c0.92,0.35,1.68,0.96,2.3,1.82
			c0.61,0.86,0.92,1.87,0.92,3.04c0,1.84-0.75,3.34-2.24,4.48c-1.5,1.14-3.46,1.72-5.89,1.72C52.56,18.78,49.81,16.93,48.77,13.23z"
			/>
	</g>
	<rect y="16.46" class="st0" width="65.25" height="15.03"/>
	<g>
		<path class="st1" d="M8.37,27.45c-0.34,0.17-1.02,0.34-1.89,0.34c-2.02,0-3.54-1.28-3.54-3.63c0-2.24,1.52-3.76,3.74-3.76
			c0.89,0,1.46,0.19,1.7,0.32l-0.22,0.76c-0.35-0.17-0.85-0.3-1.45-0.3c-1.68,0-2.8,1.07-2.8,2.96c0,1.75,1.01,2.88,2.75,2.88
			c0.56,0,1.14-0.12,1.51-0.3L8.37,27.45z"/>
		<path class="st1" d="M10.46,20.51v4.24c0,1.61,0.71,2.29,1.67,2.29c1.06,0,1.74-0.7,1.74-2.29v-4.24h0.94v4.18
			c0,2.2-1.16,3.11-2.71,3.11c-1.47,0-2.57-0.84-2.57-3.06v-4.22H10.46z"/>
		<path class="st1" d="M16.41,20.61c0.47-0.1,1.14-0.15,1.78-0.15c0.99,0,1.63,0.18,2.07,0.58c0.36,0.32,0.56,0.81,0.56,1.36
			c0,0.95-0.6,1.57-1.35,1.83v0.03c0.55,0.19,0.88,0.7,1.05,1.45c0.23,1,0.4,1.69,0.55,1.97h-0.96c-0.12-0.2-0.28-0.82-0.48-1.71
			c-0.21-0.99-0.6-1.36-1.44-1.39h-0.87v3.11h-0.93V20.61z M17.33,23.87h0.95c0.99,0,1.62-0.54,1.62-1.36
			c0-0.93-0.67-1.33-1.65-1.34c-0.45,0-0.77,0.04-0.92,0.08V23.87z"/>
		<path class="st1" d="M22.13,20.61c0.47-0.1,1.14-0.15,1.78-0.15c0.99,0,1.63,0.18,2.07,0.58c0.36,0.32,0.56,0.81,0.56,1.36
			c0,0.95-0.6,1.57-1.35,1.83v0.03c0.55,0.19,0.88,0.7,1.05,1.45c0.23,1,0.4,1.69,0.55,1.97h-0.96c-0.12-0.2-0.28-0.82-0.48-1.71
			c-0.21-0.99-0.6-1.36-1.44-1.39h-0.87v3.11h-0.93V20.61z M23.05,23.87H24c0.99,0,1.62-0.54,1.62-1.36c0-0.93-0.67-1.33-1.65-1.34
			c-0.45,0-0.77,0.04-0.92,0.08V23.87z"/>
		<path class="st1" d="M28.77,20.51v7.17h-0.93v-7.17H28.77z"/>
		<path class="st1" d="M35.4,27.45c-0.34,0.17-1.02,0.34-1.89,0.34c-2.02,0-3.54-1.28-3.54-3.63c0-2.24,1.52-3.76,3.74-3.76
			c0.89,0,1.46,0.19,1.7,0.32l-0.22,0.76c-0.35-0.17-0.85-0.3-1.45-0.3c-1.68,0-2.8,1.07-2.8,2.96c0,1.75,1.01,2.88,2.75,2.88
			c0.56,0,1.14-0.12,1.51-0.3L35.4,27.45z"/>
		<path class="st1" d="M37.48,20.51v4.24c0,1.61,0.71,2.29,1.67,2.29c1.06,0,1.74-0.7,1.74-2.29v-4.24h0.94v4.18
			c0,2.2-1.16,3.11-2.71,3.11c-1.47,0-2.57-0.84-2.57-3.06v-4.22H37.48z"/>
		<path class="st1" d="M43.44,20.51h0.93v6.39h3.06v0.78h-3.99V20.51z"/>
		<path class="st1" d="M49,20.51v4.24c0,1.61,0.71,2.29,1.67,2.29c1.06,0,1.74-0.7,1.74-2.29v-4.24h0.94v4.18
			c0,2.2-1.16,3.11-2.71,3.11c-1.47,0-2.57-0.84-2.57-3.06v-4.22H49z"/>
		<path class="st1" d="M60.99,24.53c-0.05-1-0.12-2.2-0.11-3.1h-0.03c-0.24,0.84-0.54,1.73-0.9,2.72l-1.27,3.48h-0.7l-1.16-3.41
			c-0.34-1.01-0.63-1.94-0.83-2.79h-0.02c-0.02,0.89-0.07,2.1-0.14,3.17l-0.19,3.07h-0.88l0.5-7.17h1.18l1.22,3.47
			c0.3,0.88,0.54,1.67,0.72,2.41h0.03c0.18-0.72,0.44-1.51,0.76-2.41l1.28-3.47h1.18l0.45,7.17h-0.9L60.99,24.53z"/>
	</g>
</g>
</svg>
